#!OML:ASF F:\VICON\USERDATA\INSTALL\rory3\rory3.ASF
:FULLY-SPECIFIED
:DEGREES
183
root -0.1617876625496335 17.69864767901183 54.765383925393024 -1.362392291916751 -1.7836705551896146 -2.806508090243509
lfemur -10.836057534747678 -3.0911029470860747 -18.76423118555154
ltibia 24.089344295376105
lfoot 4.329911780622036 -4.857306006034468
ltoes -1.7088028512459434
rfemur -12.017477001493376 3.169562960305017 26.21053498181821
rtibia 35.11320238047866
rfoot -3.92567729918193 -3.1907507178641117
rtoes 8.525364796739407
lowerback 9.985495073736299 0.039413440713626124 3.819455397885029
upperback -0.31479254861260714 0.6963941838575358 1.5488557939499266
thorax -5.567103157213329 0.21445265371037633 -0.6179456315247627
lowerneck -15.890442846581589 -2.7464284859860957 -3.6706427888867106
upperneck 22.268663720425618 -3.1953309163687615 0.8417822170492599
head 9.541747218487766 -1.6392943931554091 0.8387287057774435
lclavicle 1.455435154834049e-16 2.3587907374066656e-16
lhumerus -32.77636676113911 4.234395992081211 79.43596774286262
lradius 26.69808423735705
lwrist 4.209803955696759
lhand -28.33377423028421 20.35799465611463
lfingers 7.12502
lthumb -1.8426307362262537 50.22971505867574
rclavicle 1.458431635652138e-16 2.361315513930102e-16
rhumerus -25.904778559050435 -17.472708328008814 -77.21802141755818
rradius 19.24360976425934
rwrist 10.456789802479289
rhand -18.334654031336246 22.83354188194535
rfingers 7.12502
rthumb 7.832670073464837 -7.795973482022826
184
root -0.15210234592477545 17.678494192333776 54.76546158051953 -1.5310402393107627 -1.9746283064863803 -2.833160880490892
lfemur -11.551795827630608 -3.0124228387492753 -18.51073365806019
ltibia 24.188373629116604
lfoot 3.430884321284201 -3.912039791418171
ltoes -1.8354481451232583
rfemur -12.547427531304933 3.0160174663838863 26.21675462821685
rtibia 36.00491930731404
rfoot -3.1551827716875707 -3.432870387085279
rtoes 8.24595440414461
lowerback 10.071368797481119 0.0742750887878546 3.740439629619848
upperback -0.31267801849150173 0.7341887417178538 1.5501497705192084
thorax -5.619962525914309 0.23399535882622347 -0.5479708303713504
lowerneck -15.889525991386517 -2.759303813146585 -3.6622404461880436
upperneck 22.266748153611207 -3.2138171845717247 0.8493954474779698
head 9.541151235846899 -1.6445880833430477 0.831956227037026
lclavicle 1.451117544896495e-16 2.355465210792357e-16
lhumerus -32.56687438517556 4.211619506162795 79.46820996484679
lradius 26.89321981173199
lwrist 3.898525529544946
lhand -28.254519604963463 20.62886711126228
lfingers 7.12502
lthumb -1.8188858714930736 50.46734289482234
rclavicle 1.4636935414600767e-16 2.365361488512997e-16
rhumerus -25.95437231573199 -17.685722363805127 -77.23418477803934
rradius 19.151219612458405
rwrist 10.238486586235354
rhand -18.365622843209024 22.82684027504247
rfingers 7.12502
rthumb 7.871887744804254 -7.795903863661938
185
root -0.14371336363278103 17.65522723417426 54.737343466250074 -1.684198154847301 -2.1736757954219748 -2.6458469337199135
lfemur -12.275434649030489 -3.018120655805622 -18.51440706806287
ltibia 24.20357678458168
lfoot 2.5928019491076926 -2.601552416363849
ltoes -2.0300361512153433
rfemur -13.353316948979819 2.7381831646831047 26.02812135435894
rtibia 37.180410309182044
rfoot -2.4334299589059123 -3.791418160676289
rtoes 8.536045712258822
lowerback 10.150284872161576 0.10255735010742834 3.476513486767847
upperback -0.2800008841867691 0.7282082389701814 1.5142840050817918
thorax -5.625706810537525 0.23251796663137098 -0.43959882010894247
lowerneck -15.910537620634962 -2.766941880179237 -3.657033320323478
upperneck 22.25395506985058 -3.226361259518376 0.8742604016796783
head 9.53922245834274 -1.647628899892858 0.8349981313316215
lclavicle 1.452208974550711e-16 2.3563084054754613e-16
lhumerus -32.416822551250426 4.278815034311666 79.49880819816786
lradius 26.984162157324512
lwrist 3.8710155926584324
lhand -28.34487687012975 20.669497889851616
lfingers 7.12502
lthumb -1.8821234184110913 50.6315753808511
rclavicle 1.459996851764307e-16 2.3625190335429055e-16
rhumerus -25.97054042211249 -17.94673217991605 -77.22088166405167
rradius 18.998186562186753
rwrist 10.22182613402059
rhand -18.40797908388617 22.79083891106944
rfingers 7.12502
rthumb 7.872608708318212 -7.889906289968606
186
root -0.137657531068068 17.656094638301226 54.72719643449264 -1.8548148785628937 -2.365756684682217 -2.5805994713041374
lfemur -12.835103761094782 -2.967464985825648 -18.51077104476426
ltibia 24.21264766660931
lfoot 2.3486559717921205 -1.630176145534269
ltoes -2.1224228199281576
rfemur -14.265840123319407 2.5005086623927077 25.971006721194986
rtibia 38.21938952785568
rfoot -1.9512942857975464 -4.405177814052811
rtoes 8.433423681364362
lowerback 10.223714151393176 0.1204356331621596 3.283165422363059
upperback -0.2466323457358529 0.7163172027100865 1.5062801849832574
thorax -5.638095864644617 0.23477036097142123 -0.36827308203339426
lowerneck -15.926697817618692 -2.7739852419780977 -3.649663139076637
upperneck 22.273045204249826 -3.233767519984243 0.8768225002326604
head 9.54934547600071 -1.6501554464905697 0.8314642023401968
lclavicle 1.4498187620497648e-16 2.3544859237608594e-16
lhumerus -32.335578375535135 4.424677042513949 79.5333117735456
lradius 26.96596772210611
lwrist 3.7015942061399985
lhand -28.437742763984083 20.915485094961745
lfingers 7.12502
lthumb -1.951645639590253 50.859829327673964
rclavicle 1.4633839965704432e-16 2.3651237760781676e-16
rhumerus -26.065073691998503 -18.38589409314148 -77.13629357147128
rradius 18.80204729713487
rwrist 10.35650934453219
rhand -18.405975765626383 22.784561432031275
rfingers 7.12502
rthumb 7.926818109123424 -7.789488370363554
